<svg width="970" height="192" viewBox="0 0 970 192" fill="none" xmlns="http://www.w3.org/2000/svg">
<g clip-path="url(#clip0_227_20)">
<path d="M82.4195 188.932L50.8779 138.444V188.932H-2.28882e-05V47.2262H50.8862V96.0189L82.0015 47.2262H137.72C136.7 49.1577 135.688 51.0891 134.668 53.029C123.633 74.0053 112.59 94.9815 101.555 115.958L141.298 188.932H82.4278H82.4195Z" fill="#0B0B0B"/>
<path d="M198.487 47.2262V188.932H147.601V47.2262H198.487Z" fill="#0B0B0B"/>
<path d="M277.329 47.2262H328.215V133.139C328.215 171.962 304.665 191.479 267.656 191.479C234.853 191.479 212.565 174.087 207.098 143.96C222.915 141.421 238.723 138.882 254.54 136.344C254.607 137.179 255.301 144.179 260.944 147.536C263.811 149.248 266.687 149.257 267.238 149.257C273.333 149.257 277.329 145.866 277.329 137.803V47.2262Z" fill="#0B0B0B"/>
<path d="M426.61 188.932L395.069 138.444V188.932H344.182V47.2262H395.069V96.0189L426.184 47.2262H481.902L445.738 115.958L485.48 188.932H426.61Z" fill="#0B0B0B"/>
<path d="M620.257 108.746V188.932H587.453C587.328 184.327 587.202 179.73 587.077 175.125C582.956 178.692 567.114 191.555 543.506 191.479C536.617 191.454 519.931 190.366 504.816 178.557C489.61 166.682 479.586 146.912 479.586 120.419C479.586 75.6583 509.23 44.6874 553.805 44.6874C586.392 44.6874 611.839 61.6573 618.351 86.6904C601.498 90.0642 584.653 93.4464 567.799 96.8201C567.206 95.361 565.818 92.5355 562.842 90.351C559.105 87.6098 555.159 87.5423 553.161 87.5423C542.018 87.5423 531.718 96.449 531.718 120.419C531.718 138.452 538.239 151.18 553.588 151.18C564.522 151.18 569.145 145.242 569.145 139.937V139.085H554.641V108.746H620.24H620.257Z" fill="#0B0B0B"/>
<path d="M728.124 168.352H683.758L677.238 188.932H627.405L677.865 47.2262H735.899L786.359 188.932H734.636L728.116 168.352H728.124ZM695.32 132.076H716.554L706.037 99.4095H705.619L695.32 132.076Z" fill="#0B0B0B"/>
<path d="M812.851 188.932V89.2293H771.854V47.2262H904.742V89.2293H863.745V188.932H812.859H812.851Z" fill="#0B0B0B"/>
<path d="M945.647 48.2127C942.42 48.2127 939.394 47.597 936.568 46.3825C933.734 45.1595 931.243 43.4642 929.094 41.2966C926.946 39.1289 925.257 36.6155 924.037 33.7647C922.816 30.9139 922.214 27.8607 922.231 24.5881C922.248 21.324 922.866 18.2624 924.078 15.4116C925.299 12.5607 926.979 10.0557 929.119 7.87968C931.26 5.71205 933.751 4.01675 936.568 2.78533C939.394 1.56235 942.412 0.955078 945.638 0.955078C948.865 0.955078 951.908 1.57079 954.742 2.78533C957.576 4.00831 960.059 5.70362 962.191 7.87968C964.331 10.0473 966.003 12.5607 967.215 15.4116C968.427 18.2624 969.038 21.3156 969.054 24.5881C969.071 27.8607 968.469 30.9139 967.257 33.7647C966.045 36.6155 964.364 39.1205 962.224 41.2966C960.084 43.4642 957.593 45.1595 954.751 46.3825C951.917 47.6055 948.874 48.2127 945.638 48.2127H945.647ZM945.647 40.7652C947.879 40.7652 949.969 40.3435 951.908 39.5085C953.848 38.6735 955.553 37.5096 957.016 36.0335C958.479 34.5491 959.624 32.8369 960.452 30.8886C961.28 28.9403 961.689 26.8485 961.673 24.6134C961.673 22.3615 961.255 20.2529 960.427 18.2961C959.599 16.3393 958.446 14.6187 956.983 13.1427C955.52 11.6667 953.806 10.5112 951.875 9.6762C949.944 8.8412 947.862 8.41948 945.647 8.41948C943.431 8.41948 941.375 8.8412 939.452 9.6762C937.529 10.5112 935.824 11.6751 934.353 13.1511C932.881 14.6356 931.728 16.3562 930.883 18.3214C930.039 20.2866 929.613 22.3783 929.596 24.6219C929.596 26.8485 930.014 28.9318 930.85 30.8717C931.686 32.8116 932.84 34.5322 934.311 36.0167C935.782 37.5011 937.488 38.6651 939.419 39.5085C941.35 40.3519 943.431 40.7736 945.647 40.7736V40.7652ZM933.316 24.5881C933.316 22.2602 933.876 20.1432 935.005 18.2371C936.133 16.3309 937.638 14.8043 939.527 13.6741C941.417 12.5439 943.515 11.9703 945.822 11.9703C947.829 11.9703 949.693 12.4174 951.407 13.3114C953.12 14.2054 954.533 15.42 955.645 16.955C956.757 18.4901 957.417 20.2191 957.643 22.1422H951.056C950.838 21.0204 950.228 20.1095 949.225 19.401C948.23 18.6925 947.093 18.3383 945.822 18.3383C944.685 18.3383 943.649 18.6166 942.704 19.1648C941.759 19.7131 941.015 20.4637 940.455 21.4168C939.895 22.3615 939.611 23.4158 939.611 24.5628C939.611 25.7099 939.887 26.7558 940.455 27.7088C941.015 28.6535 941.768 29.4126 942.704 29.9777C943.64 30.5428 944.677 30.8295 945.822 30.8295C947.093 30.8295 948.196 30.4753 949.124 29.7668C950.052 29.0583 950.638 28.1474 950.88 27.0257H957.468C957.25 28.9487 956.598 30.6777 955.52 32.2128C954.441 33.7478 953.062 34.9624 951.373 35.8564C949.685 36.7505 947.837 37.1975 945.831 37.1975C943.523 37.1975 941.425 36.6324 939.536 35.4937C937.646 34.3551 936.133 32.8369 935.013 30.9308C933.893 29.0246 933.324 26.9076 933.324 24.5797L933.316 24.5881Z" fill="#0B0B0B"/>
</g>
<defs>
<clipPath id="clip0_227_20">
<rect width="969.063" height="190.515" fill="#0B0B0B" transform="translate(0 0.963623)"/>
</clipPath>
</defs>
</svg>
